<?xml version="1.0" encoding="UTF-8" standalone="no"?>
<!DOCTYPE svg PUBLIC "-//W3C//DTD SVG 1.1//EN"
 "http://www.w3.org/Graphics/SVG/1.1/DTD/svg11.dtd">
<!-- Generated by graphviz version 2.40.1 (20161225.0304)
 -->
<!-- Title: dependencies Pages: 1 -->
<svg width="641pt" height="211pt"
 viewBox="0.00 0.00 641.00 211.00" xmlns="http://www.w3.org/2000/svg" xmlns:xlink="http://www.w3.org/1999/xlink">
<g id="graph0" class="graph" transform="scale(1 1) rotate(0) translate(4 207)">
<title>dependencies</title>
<polygon fill="#ffffff" stroke="transparent" points="-4,4 -4,-207 637,-207 637,4 -4,4"/>
<text text-anchor="start" x="295.5091" y="-42.4" font-family="sans-serif" font-weight="bold" font-size="14.00" fill="#000000">Legend</text>
<polygon fill="#ffffb3" stroke="transparent" points="82.5,-10 82.5,-30 102.5,-30 102.5,-10 82.5,-10"/>
<text text-anchor="start" x="106.129" y="-15.4" font-family="sans-serif" font-size="14.00" fill="#000000"> &#160;Declarations</text>
<polygon fill="#8dd3c7" stroke="transparent" points="195.5,-10 195.5,-30 215.5,-30 215.5,-10 195.5,-10"/>
<text text-anchor="start" x="219.2251" y="-15.4" font-family="sans-serif" font-size="14.00" fill="#000000"> &#160;Module</text>
<polygon fill="#80b1d3" stroke="transparent" points="281.5,-10 281.5,-30 301.5,-30 301.5,-10 281.5,-10"/>
<text text-anchor="start" x="305.2812" y="-15.4" font-family="sans-serif" font-size="14.00" fill="#000000"> &#160;Bootstrap</text>
<polygon fill="#fdb462" stroke="transparent" points="378.5,-10 378.5,-30 398.5,-30 398.5,-10 378.5,-10"/>
<text text-anchor="start" x="402.1732" y="-15.4" font-family="sans-serif" font-size="14.00" fill="#000000"> &#160;Providers</text>
<polygon fill="#fb8072" stroke="transparent" points="474.5,-10 474.5,-30 494.5,-30 494.5,-10 474.5,-10"/>
<text text-anchor="start" x="498.2258" y="-15.4" font-family="sans-serif" font-size="14.00" fill="#000000"> &#160;Exports</text>
<g id="clust1" class="cluster">
<title>cluster_AppModule</title>
<polygon fill="none" stroke="#000000" stroke-dasharray="1,5" points="8,-70 8,-195 625,-195 625,-70 8,-70"/>
</g>
<g id="clust3" class="cluster">
<title>cluster_AppModule_imports</title>
<polygon fill="none" stroke="#000000" points="313,-78 313,-130 617,-130 617,-78 313,-78"/>
</g>
<g id="clust6" class="cluster">
<title>cluster_AppModule_providers</title>
<polygon fill="none" stroke="#000000" points="16,-78 16,-130 305,-130 305,-78 16,-78"/>
</g>
<!-- ApplicationLoggerModule -->
<g id="node1" class="node">
<title>ApplicationLoggerModule</title>
<polygon fill="#8dd3c7" stroke="#000000" points="609.0758,-122 606.0758,-126 585.0758,-126 582.0758,-122 442.9242,-122 442.9242,-86 609.0758,-86 609.0758,-122"/>
<text text-anchor="middle" x="526" y="-99.8" font-family="Times,serif" font-size="14.00" fill="#000000">ApplicationLoggerModule</text>
</g>
<!-- AppModule -->
<g id="node3" class="node">
<title>AppModule</title>
<polygon fill="#8dd3c7" stroke="#000000" points="347.6571,-187 344.6571,-191 323.6571,-191 320.6571,-187 264.3429,-187 264.3429,-151 347.6571,-151 347.6571,-187"/>
<text text-anchor="middle" x="306" y="-164.8" font-family="Times,serif" font-size="14.00" fill="#000000">AppModule</text>
</g>
<!-- ApplicationLoggerModule&#45;&gt;AppModule -->
<g id="edge1" class="edge">
<title>ApplicationLoggerModule&#45;&gt;AppModule</title>
<path fill="none" stroke="#000000" d="M526,-122.1061C526,-141.3391 526,-169 526,-169 526,-169 357.8982,-169 357.8982,-169"/>
<polygon fill="#000000" stroke="#000000" points="357.8982,-165.5001 347.8982,-169 357.8981,-172.5001 357.8982,-165.5001"/>
</g>
<!-- ContentModule -->
<g id="node2" class="node">
<title>ContentModule</title>
<polygon fill="#8dd3c7" stroke="#000000" points="424.8823,-122 421.8823,-126 400.8823,-126 397.8823,-122 321.1177,-122 321.1177,-86 424.8823,-86 424.8823,-122"/>
<text text-anchor="middle" x="373" y="-99.8" font-family="Times,serif" font-size="14.00" fill="#000000">ContentModule</text>
</g>
<!-- ContentModule&#45;&gt;AppModule -->
<g id="edge2" class="edge">
<title>ContentModule&#45;&gt;AppModule</title>
<path fill="none" stroke="#000000" d="M334.4435,-122.1061C334.4435,-122.1061 334.4435,-140.991 334.4435,-140.991"/>
<polygon fill="#000000" stroke="#000000" points="330.9436,-140.9909 334.4435,-150.991 337.9436,-140.991 330.9436,-140.9909"/>
</g>
<!-- AppService -->
<g id="node4" class="node">
<title>AppService</title>
<ellipse fill="#fdb462" stroke="#000000" cx="240" cy="-104" rx="56.7406" ry="18"/>
<text text-anchor="middle" x="240" y="-99.8" font-family="Times,serif" font-size="14.00" fill="#000000">AppService</text>
</g>
<!-- AppService&#45;&gt;AppModule -->
<g id="edge3" class="edge">
<title>AppService&#45;&gt;AppModule</title>
<path fill="none" stroke="#000000" d="M280.396,-116.8419C280.396,-116.8419 280.396,-140.5231 280.396,-140.5231"/>
<polygon fill="#000000" stroke="#000000" points="276.8961,-140.523 280.396,-150.5231 283.8961,-140.5231 276.8961,-140.523"/>
</g>
<!-- ContentService -->
<g id="node5" class="node">
<title>ContentService</title>
<ellipse fill="#fdb462" stroke="#000000" cx="95" cy="-104" rx="70.6432" ry="18"/>
<text text-anchor="middle" x="95" y="-99.8" font-family="Times,serif" font-size="14.00" fill="#000000">ContentService</text>
</g>
<!-- ContentService&#45;&gt;AppModule -->
<g id="edge4" class="edge">
<title>ContentService&#45;&gt;AppModule</title>
<path fill="none" stroke="#000000" d="M95,-122.1061C95,-141.3391 95,-169 95,-169 95,-169 254.3132,-169 254.3132,-169"/>
<polygon fill="#000000" stroke="#000000" points="254.3132,-172.5001 264.3132,-169 254.3132,-165.5001 254.3132,-172.5001"/>
</g>
</g>
</svg>
