<?xml version="1.0" encoding="UTF-8" standalone="no"?>
<!DOCTYPE svg PUBLIC "-//W3C//DTD SVG 1.1//EN"
 "http://www.w3.org/Graphics/SVG/1.1/DTD/svg11.dtd">
<!-- Generated by graphviz version 2.40.1 (20161225.0304)
 -->
<!-- Title: dependencies Pages: 1 -->
<svg width="504pt" height="284pt"
 viewBox="0.00 0.00 504.00 284.00" xmlns="http://www.w3.org/2000/svg" xmlns:xlink="http://www.w3.org/1999/xlink">
<g id="graph0" class="graph" transform="scale(1 1) rotate(0) translate(4 280)">
<title>dependencies</title>
<polygon fill="#ffffff" stroke="transparent" points="-4,4 -4,-280 500,-280 500,4 -4,4"/>
<text text-anchor="start" x="227.0091" y="-42.4" font-family="sans-serif" font-weight="bold" font-size="14.00" fill="#000000">Legend</text>
<polygon fill="#ffffb3" stroke="transparent" points="14,-10 14,-30 34,-30 34,-10 14,-10"/>
<text text-anchor="start" x="37.629" y="-15.4" font-family="sans-serif" font-size="14.00" fill="#000000"> &#160;Declarations</text>
<polygon fill="#8dd3c7" stroke="transparent" points="127,-10 127,-30 147,-30 147,-10 127,-10"/>
<text text-anchor="start" x="150.7251" y="-15.4" font-family="sans-serif" font-size="14.00" fill="#000000"> &#160;Module</text>
<polygon fill="#80b1d3" stroke="transparent" points="213,-10 213,-30 233,-30 233,-10 213,-10"/>
<text text-anchor="start" x="236.7812" y="-15.4" font-family="sans-serif" font-size="14.00" fill="#000000"> &#160;Bootstrap</text>
<polygon fill="#fdb462" stroke="transparent" points="310,-10 310,-30 330,-30 330,-10 310,-10"/>
<text text-anchor="start" x="333.6732" y="-15.4" font-family="sans-serif" font-size="14.00" fill="#000000"> &#160;Providers</text>
<polygon fill="#fb8072" stroke="transparent" points="406,-10 406,-30 426,-30 426,-10 406,-10"/>
<text text-anchor="start" x="429.7258" y="-15.4" font-family="sans-serif" font-size="14.00" fill="#000000"> &#160;Exports</text>
<g id="clust1" class="cluster">
<title>cluster_ContentModule</title>
<polygon fill="none" stroke="#000000" stroke-dasharray="1,5" points="66,-70 66,-268 430,-268 430,-70 66,-70"/>
</g>
<g id="clust3" class="cluster">
<title>cluster_ContentModule_imports</title>
<polygon fill="none" stroke="#000000" points="240,-78 240,-130 422,-130 422,-78 240,-78"/>
</g>
<g id="clust4" class="cluster">
<title>cluster_ContentModule_exports</title>
<polygon fill="none" stroke="#000000" points="181,-208 181,-260 303,-260 303,-208 181,-208"/>
</g>
<g id="clust6" class="cluster">
<title>cluster_ContentModule_providers</title>
<polygon fill="none" stroke="#000000" points="74,-78 74,-130 232,-130 232,-78 74,-78"/>
</g>
<!-- ApplicationLoggerModule -->
<g id="node1" class="node">
<title>ApplicationLoggerModule</title>
<polygon fill="#8dd3c7" stroke="#000000" points="414.0758,-122 411.0758,-126 390.0758,-126 387.0758,-122 247.9242,-122 247.9242,-86 414.0758,-86 414.0758,-122"/>
<text text-anchor="middle" x="331" y="-99.8" font-family="Times,serif" font-size="14.00" fill="#000000">ApplicationLoggerModule</text>
</g>
<!-- ContentModule -->
<g id="node2" class="node">
<title>ContentModule</title>
<polygon fill="#8dd3c7" stroke="#000000" points="293.8823,-187 290.8823,-191 269.8823,-191 266.8823,-187 190.1177,-187 190.1177,-151 293.8823,-151 293.8823,-187"/>
<text text-anchor="middle" x="242" y="-164.8" font-family="Times,serif" font-size="14.00" fill="#000000">ContentModule</text>
</g>
<!-- ApplicationLoggerModule&#45;&gt;ContentModule -->
<g id="edge1" class="edge">
<title>ApplicationLoggerModule&#45;&gt;ContentModule</title>
<path fill="none" stroke="#000000" d="M270.9516,-122.1061C270.9516,-122.1061 270.9516,-140.991 270.9516,-140.991"/>
<polygon fill="#000000" stroke="#000000" points="267.4517,-140.9909 270.9516,-150.991 274.4517,-140.991 267.4517,-140.9909"/>
</g>
<!-- ContentService  -->
<g id="node3" class="node">
<title>ContentService </title>
<polygon fill="#fb8072" stroke="#000000" points="294.8102,-252 189.1898,-252 189.1898,-216 294.8102,-216 294.8102,-252"/>
<text text-anchor="middle" x="242" y="-229.8" font-family="Times,serif" font-size="14.00" fill="#000000">ContentService </text>
</g>
<!-- ContentModule&#45;&gt;ContentService  -->
<g id="edge2" class="edge">
<title>ContentModule&#45;&gt;ContentService </title>
<path fill="none" stroke="#000000" stroke-dasharray="5,2" d="M242,-187.1061C242,-187.1061 242,-205.991 242,-205.991"/>
<polygon fill="#000000" stroke="#000000" points="238.5001,-205.9909 242,-215.991 245.5001,-205.991 238.5001,-205.9909"/>
</g>
<!-- ContentService -->
<g id="node4" class="node">
<title>ContentService</title>
<ellipse fill="#fdb462" stroke="#000000" cx="153" cy="-104" rx="70.6432" ry="18"/>
<text text-anchor="middle" x="153" y="-99.8" font-family="Times,serif" font-size="14.00" fill="#000000">ContentService</text>
</g>
<!-- ContentService&#45;&gt;ContentModule -->
<g id="edge3" class="edge">
<title>ContentService&#45;&gt;ContentModule</title>
<path fill="none" stroke="#000000" d="M206.8152,-115.922C206.8152,-115.922 206.8152,-140.7669 206.8152,-140.7669"/>
<polygon fill="#000000" stroke="#000000" points="203.3153,-140.7669 206.8152,-150.7669 210.3153,-140.7669 203.3153,-140.7669"/>
</g>
</g>
</svg>
