<?xml version="1.0" encoding="UTF-8" standalone="no"?>
<!DOCTYPE svg PUBLIC "-//W3C//DTD SVG 1.1//EN"
 "http://www.w3.org/Graphics/SVG/1.1/DTD/svg11.dtd">
<!-- Generated by graphviz version 2.40.1 (20161225.0304)
 -->
<!-- Title: dependencies Pages: 1 -->
<svg width="741pt" height="363pt"
 viewBox="0.00 0.00 741.00 363.00" xmlns="http://www.w3.org/2000/svg" xmlns:xlink="http://www.w3.org/1999/xlink">
<g id="graph0" class="graph" transform="scale(1 1) rotate(0) translate(4 359)">
<title>dependencies</title>
<polygon fill="#ffffff" stroke="transparent" points="-4,4 -4,-359 737,-359 737,4 -4,4"/>
<text text-anchor="start" x="345.5091" y="-42.4" font-family="sans-serif" font-weight="bold" font-size="14.00" fill="#000000">Legend</text>
<polygon fill="#ffffb3" stroke="transparent" points="132.5,-10 132.5,-30 152.5,-30 152.5,-10 132.5,-10"/>
<text text-anchor="start" x="156.129" y="-15.4" font-family="sans-serif" font-size="14.00" fill="#000000"> &#160;Declarations</text>
<polygon fill="#8dd3c7" stroke="transparent" points="245.5,-10 245.5,-30 265.5,-30 265.5,-10 245.5,-10"/>
<text text-anchor="start" x="269.2251" y="-15.4" font-family="sans-serif" font-size="14.00" fill="#000000"> &#160;Module</text>
<polygon fill="#80b1d3" stroke="transparent" points="331.5,-10 331.5,-30 351.5,-30 351.5,-10 331.5,-10"/>
<text text-anchor="start" x="355.2812" y="-15.4" font-family="sans-serif" font-size="14.00" fill="#000000"> &#160;Bootstrap</text>
<polygon fill="#fdb462" stroke="transparent" points="428.5,-10 428.5,-30 448.5,-30 448.5,-10 428.5,-10"/>
<text text-anchor="start" x="452.1732" y="-15.4" font-family="sans-serif" font-size="14.00" fill="#000000"> &#160;Providers</text>
<polygon fill="#fb8072" stroke="transparent" points="524.5,-10 524.5,-30 544.5,-30 544.5,-10 524.5,-10"/>
<text text-anchor="start" x="548.2258" y="-15.4" font-family="sans-serif" font-size="14.00" fill="#000000"> &#160;Exports</text>
<g id="clust1" class="cluster">
<title>cluster_ApplicationLoggerModule</title>
<polygon fill="none" stroke="#000000" stroke-dasharray="1,5" points="467,-70 467,-271 725,-271 725,-70 467,-70"/>
</g>
<g id="clust4" class="cluster">
<title>cluster_ApplicationLoggerModule_exports</title>
<polygon fill="none" stroke="#000000" points="475,-211 475,-263 659,-263 659,-211 475,-211"/>
</g>
<g id="clust6" class="cluster">
<title>cluster_ApplicationLoggerModule_providers</title>
<polygon fill="none" stroke="#000000" points="475,-78 475,-130 717,-130 717,-78 475,-78"/>
</g>
<g id="clust7" class="cluster">
<title>cluster_AppModule</title>
<polygon fill="none" stroke="#000000" stroke-dasharray="1,5" points="154,-138 154,-339 459,-339 459,-138 154,-138"/>
</g>
<g id="clust9" class="cluster">
<title>cluster_AppModule_imports</title>
<polygon fill="none" stroke="#000000" points="321,-211 321,-263 441,-263 441,-211 321,-211"/>
</g>
<g id="clust12" class="cluster">
<title>cluster_AppModule_providers</title>
<polygon fill="none" stroke="#000000" points="162,-146 162,-198 451,-198 451,-146 162,-146"/>
</g>
<g id="clust13" class="cluster">
<title>cluster_ContentModule</title>
<polygon fill="none" stroke="#000000" stroke-dasharray="1,5" points="8,-279 8,-347 146,-347 146,-279 8,-279"/>
</g>
<g id="clust16" class="cluster">
<title>cluster_ContentModule_exports</title>
<polygon fill="none" stroke="#000000" points="16,-287 16,-339 138,-339 138,-287 16,-287"/>
</g>
<!-- ApplicationLoggerService  -->
<g id="node1" class="node">
<title>ApplicationLoggerService </title>
<polygon fill="#fb8072" stroke="#000000" points="651.0036,-255 482.9964,-255 482.9964,-219 651.0036,-219 651.0036,-255"/>
<text text-anchor="middle" x="567" y="-232.8" font-family="Times,serif" font-size="14.00" fill="#000000">ApplicationLoggerService </text>
</g>
<!-- ApplicationLoggerModule -->
<g id="node2" class="node">
<title>ApplicationLoggerModule</title>
<polygon fill="#8dd3c7" stroke="#000000" points="664.0758,-190 661.0758,-194 640.0758,-194 637.0758,-190 497.9242,-190 497.9242,-154 664.0758,-154 664.0758,-190"/>
<text text-anchor="middle" x="581" y="-167.8" font-family="Times,serif" font-size="14.00" fill="#000000">ApplicationLoggerModule</text>
</g>
<!-- ApplicationLoggerModule&#45;&gt;ApplicationLoggerService  -->
<g id="edge1" class="edge">
<title>ApplicationLoggerModule&#45;&gt;ApplicationLoggerService </title>
<path fill="none" stroke="#000000" stroke-dasharray="5,2" d="M574.482,-190.1061C574.482,-190.1061 574.482,-208.991 574.482,-208.991"/>
<polygon fill="#000000" stroke="#000000" points="570.982,-208.9909 574.482,-218.991 577.982,-208.991 570.982,-208.9909"/>
</g>
<!-- ContentModule -->
<g id="node4" class="node">
<title>ContentModule</title>
<polygon fill="#8dd3c7" stroke="#000000" points="432.8823,-255 429.8823,-259 408.8823,-259 405.8823,-255 329.1177,-255 329.1177,-219 432.8823,-219 432.8823,-255"/>
<text text-anchor="middle" x="381" y="-232.8" font-family="Times,serif" font-size="14.00" fill="#000000">ContentModule</text>
</g>
<!-- ApplicationLoggerModule&#45;&gt;ContentModule -->
<g id="edge7" class="edge">
<title>ApplicationLoggerModule&#45;&gt;ContentModule</title>
<path fill="none" stroke="#000000" d="M497.7682,-172C478.0146,-172 462.55,-172 462.55,-172 462.55,-172 462.55,-237 462.55,-237 462.55,-237 443.1086,-237 443.1086,-237"/>
<polygon fill="#000000" stroke="#000000" points="443.1086,-233.5001 433.1086,-237 443.1085,-240.5001 443.1086,-233.5001"/>
</g>
<!-- AppModule -->
<g id="node5" class="node">
<title>AppModule</title>
<polygon fill="#8dd3c7" stroke="#000000" points="386.6571,-331 383.6571,-335 362.6571,-335 359.6571,-331 303.3429,-331 303.3429,-295 386.6571,-295 386.6571,-331"/>
<text text-anchor="middle" x="345" y="-308.8" font-family="Times,serif" font-size="14.00" fill="#000000">AppModule</text>
</g>
<!-- ApplicationLoggerModule&#45;&gt;AppModule -->
<g id="edge3" class="edge">
<title>ApplicationLoggerModule&#45;&gt;AppModule</title>
<path fill="none" stroke="#000000" d="M657.5199,-190.1446C657.5199,-228.2265 657.5199,-313 657.5199,-313 657.5199,-313 396.8235,-313 396.8235,-313"/>
<polygon fill="#000000" stroke="#000000" points="396.8236,-309.5001 386.8235,-313 396.8235,-316.5001 396.8236,-309.5001"/>
</g>
<!-- ApplicationLoggerService -->
<g id="node3" class="node">
<title>ApplicationLoggerService</title>
<ellipse fill="#fdb462" stroke="#000000" cx="596" cy="-104" rx="113.4432" ry="18"/>
<text text-anchor="middle" x="596" y="-99.8" font-family="Times,serif" font-size="14.00" fill="#000000">ApplicationLoggerService</text>
</g>
<!-- ApplicationLoggerService&#45;&gt;ApplicationLoggerModule -->
<g id="edge2" class="edge">
<title>ApplicationLoggerService&#45;&gt;ApplicationLoggerModule</title>
<path fill="none" stroke="#000000" d="M581,-121.8662C581,-121.8662 581,-143.5422 581,-143.5422"/>
<polygon fill="#000000" stroke="#000000" points="577.5001,-143.5421 581,-153.5422 584.5001,-143.5422 577.5001,-143.5421"/>
</g>
<!-- ContentModule&#45;&gt;AppModule -->
<g id="edge4" class="edge">
<title>ContentModule&#45;&gt;AppModule</title>
<path fill="none" stroke="#000000" d="M357.9435,-255.0109C357.9435,-255.0109 357.9435,-284.855 357.9435,-284.855"/>
<polygon fill="#000000" stroke="#000000" points="354.4436,-284.8549 357.9435,-294.855 361.4436,-284.855 354.4436,-284.8549"/>
</g>
<!-- ContentService  -->
<g id="node8" class="node">
<title>ContentService </title>
<polygon fill="#fb8072" stroke="#000000" points="129.8102,-331 24.1898,-331 24.1898,-295 129.8102,-295 129.8102,-331"/>
<text text-anchor="middle" x="77" y="-308.8" font-family="Times,serif" font-size="14.00" fill="#000000">ContentService </text>
</g>
<!-- ContentModule&#45;&gt;ContentService  -->
<g id="edge8" class="edge">
<title>ContentModule&#45;&gt;ContentService </title>
<path fill="none" stroke="#000000" stroke-dasharray="5,2" d="M329.086,-237C242.2599,-237 77,-237 77,-237 77,-237 77,-284.9891 77,-284.9891"/>
<polygon fill="#000000" stroke="#000000" points="73.5001,-284.989 77,-294.9891 80.5001,-284.9891 73.5001,-284.989"/>
</g>
<!-- AppService -->
<g id="node6" class="node">
<title>AppService</title>
<ellipse fill="#fdb462" stroke="#000000" cx="227" cy="-172" rx="56.7406" ry="18"/>
<text text-anchor="middle" x="227" y="-167.8" font-family="Times,serif" font-size="14.00" fill="#000000">AppService</text>
</g>
<!-- AppService&#45;&gt;AppModule -->
<g id="edge5" class="edge">
<title>AppService&#45;&gt;AppModule</title>
<path fill="none" stroke="#000000" d="M227,-190.1446C227,-228.2265 227,-313 227,-313 227,-313 293.0654,-313 293.0654,-313"/>
<polygon fill="#000000" stroke="#000000" points="293.0654,-316.5001 303.0654,-313 293.0653,-309.5001 293.0654,-316.5001"/>
</g>
<!-- ContentService -->
<g id="node7" class="node">
<title>ContentService</title>
<ellipse fill="#fdb462" stroke="#000000" cx="372" cy="-172" rx="70.6432" ry="18"/>
<text text-anchor="middle" x="372" y="-167.8" font-family="Times,serif" font-size="14.00" fill="#000000">ContentService</text>
</g>
<!-- ContentService&#45;&gt;ContentModule -->
<g id="edge9" class="edge">
<title>ContentService&#45;&gt;ContentModule</title>
<path fill="none" stroke="#000000" d="M381,-190.1061C381,-190.1061 381,-208.991 381,-208.991"/>
<polygon fill="#000000" stroke="#000000" points="377.5001,-208.9909 381,-218.991 384.5001,-208.991 377.5001,-208.9909"/>
</g>
<!-- ContentService&#45;&gt;AppModule -->
<g id="edge6" class="edge">
<title>ContentService&#45;&gt;AppModule</title>
<path fill="none" stroke="#000000" d="M316.1154,-183.064C316.1154,-183.064 316.1154,-284.5848 316.1154,-284.5848"/>
<polygon fill="#000000" stroke="#000000" points="312.6154,-284.5848 316.1154,-294.5848 319.6154,-284.5848 312.6154,-284.5848"/>
</g>
</g>
</svg>
